<?xml version="1.0"?>
<svg width="20" height="20" xmlns="http://www.w3.org/2000/svg" xmlns:svg="http://www.w3.org/2000/svg" data-spec="button-icon">
 <g class="layer">
  <title>Layer 1</title>
  <path clip-rule="evenodd" d="m4,9.78c0,-3.94 0.82,-4.78 4.62,-4.78l2.76,0c3.8,0 4.62,0.84 4.62,4.78c0,3.94 -0.82,5.12 -4.62,5.12l-0.55,0c-0.03,0.03 -0.06,0.07 -0.1,0.1l-2.19,1.86c-0.41,0.33 -1.03,0.04 -1.03,-0.49l0,-1.5c-2.86,-0.18 -3.51,-1.56 -3.51,-5.09zm6,0.89c0.37,0 0.67,-0.3 0.67,-0.67c0,-0.37 -0.3,-0.67 -0.67,-0.67c-0.37,0 -0.67,0.3 -0.67,0.67c0,0.37 0.3,0.67 0.67,0.67zm3.33,-0.67c0,0.37 -0.3,0.67 -0.66,0.67c-0.37,0 -0.67,-0.3 -0.67,-0.67c0,-0.37 0.3,-0.67 0.67,-0.67c0.36,0 0.66,0.3 0.66,0.67zm-6,0.67c0.37,0 0.67,-0.3 0.67,-0.67c0,-0.37 -0.3,-0.67 -0.67,-0.67c-0.36,0 -0.66,0.3 -0.66,0.67c0,0.37 0.3,0.67 0.66,0.67z" fill="#ffffff" fill-rule="evenodd" id="svg_1"/>
 </g>
</svg>